<svg xmlns="http://www.w3.org/2000/svg" viewBox="0 0 29 29" shape-rendering="crispEdges">
  <rect width="29" height="29" fill="#ffffff"/>
  <path fill="#111827" d="M0 0h7v7H0zM22 0h7v7h-7zM0 22h7v7H0z"/>
  <path fill="#ffffff" d="M1 1h5v5H1zM23 1h5v5h-5zM1 23h5v5H1z"/>
  <path fill="#111827" d="M2 2h3v3H2zM24 2h3v3h-3zM2 24h3v3H2z"/>
  <path fill="#111827" d="M9 0h1v1H9zM11 0h2v1h-2zM14 0h1v1h-1zM17 0h2v1h-2zM20 0h1v1h-1zM8 1h3v1H8zM13 1h1v1h-1zM16 1h1v1h-1zM19 1h2v1h-2zM9 2h1v1H9zM12 2h2v1h-2zM15 2h2v1h-2zM18 2h1v1h-1zM20 2h1v1h-1zM8 3h1v1H8zM10 3h3v1h-3zM14 3h1v1h-1zM17 3h2v1h-2zM9 4h2v1H9zM13 4h2v1h-2zM16 4h1v1h-1zM19 4h2v1h-2zM8 5h1v1H8zM11 5h1v1h-1zM14 5h3v1h-3zM18 5h1v1h-1zM20 5h1v1h-1zM9 6h1v1H9zM12 6h1v1h-1zM15 6h1v1h-1zM17 6h4v1h-4zM0 8h1v1H0zM3 8h2v1H3zM6 8h1v1H6zM8 8h2v1H8zM12 8h3v1h-3zM16 8h1v1h-1zM18 8h2v1h-2zM22 8h1v1h-1zM25 8h4v1h-4zM1 9h2v1H1zM4 9h1v1H4zM7 9h2v1H7zM10 9h1v1h-1zM13 9h1v1h-1zM15 9h3v1h-3zM20 9h3v1h-3zM24 9h1v1h-1zM27 9h1v1h-1zM0 10h1v1H0zM2 10h2v1H2zM6 10h2v1H6zM9 10h4v1H9zM14 10h1v1h-1zM18 10h1v1h-1zM21 10h2v1h-2zM25 10h1v1h-1zM28 10h1v1h-1zM1 11h1v1H1zM3 11h3v1H3zM8 11h1v1H8zM11 11h1v1h-1zM13 11h2v1h-2zM16 11h4v1h-4zM22 11h1v1h-1zM24 11h3v1h-3zM0 12h2v1H0zM5 12h1v1H5zM7 12h3v1H7zM12 12h1v1h-1zM14 12h2v1h-2zM19 12h1v1h-1zM21 12h2v1h-2zM26 12h2v1h-2zM2 13h2v1H2zM6 13h2v1H6zM9 13h1v1H9zM11 13h3v1h-3zM15 13h1v1h-1zM18 13h3v1h-3zM23 13h1v1h-1zM25 13h4v1h-4zM0 14h1v1H0zM4 14h2v1H4zM7 14h1v1H7zM10 14h2v1h-2zM13 14h1v1h-1zM16 14h2v1h-2zM20 14h3v1h-3zM24 14h1v1h-1zM27 14h1v1h-1zM1 15h3v1H1zM5 15h1v1H5zM8 15h1v1H8zM12 15h4v1h-4zM17 15h1v1h-1zM19 15h1v1h-1zM22 15h4v1h-4zM0 16h2v1H0zM4 16h1v1H4zM6 16h3v1H6zM10 16h1v1h-1zM14 16h1v1h-1zM16 16h3v1h-3zM21 16h1v1h-1zM24 16h2v1h-2zM27 16h2v1h-2zM2 17h1v1H2zM5 17h3v1H5zM9 17h3v1H9zM13 17h2v1h-2zM18 17h2v1h-2zM23 17h1v1h-1zM26 17h1v1h-1zM0 18h1v1H0zM3 18h2v1H3zM7 18h1v1H7zM11 18h1v1h-1zM14 18h4v1h-4zM20 18h2v1h-2zM25 18h4v1h-4zM1 19h1v1H1zM4 19h3v1H4zM8 19h3v1H8zM12 19h1v1h-1zM16 19h2v1h-2zM19 19h1v1h-1zM22 19h3v1h-3zM27 19h1v1h-1zM0 20h3v1H0zM5 20h1v1H5zM7 20h1v1H7zM10 20h3v1h-3zM15 20h1v1h-1zM18 20h3v1h-3zM23 20h1v1h-1zM26 20h3v1h-3zM8 22h1v1H8zM10 22h2v1h-2zM13 22h1v1h-1zM16 22h3v1h-3zM20 22h1v1h-1zM22 22h2v1h-2zM26 22h3v1h-3zM9 23h3v1H9zM14 23h2v1h-2zM17 23h1v1h-1zM20 23h2v1h-2zM24 23h1v1h-1zM27 23h1v1h-1zM8 24h1v1H8zM11 24h1v1h-1zM13 24h4v1h-4zM18 24h1v1h-1zM21 24h2v1h-2zM25 24h3v1h-3zM9 25h2v1H9zM12 25h3v1h-3zM17 25h1v1h-1zM19 25h3v1h-3zM23 25h1v1h-1zM26 25h2v1h-2zM8 26h2v1H8zM11 26h1v1h-1zM14 26h2v1h-2zM18 26h1v1h-1zM20 26h1v1h-1zM22 26h4v1h-4zM27 26h2v1h-2zM9 27h1v1H9zM12 27h2v1h-2zM15 27h1v1h-1zM17 27h4v1h-4zM24 27h1v1h-1zM28 27h1v1h-1zM8 28h3v1H8zM13 28h1v1h-1zM16 28h2v1h-2zM19 28h1v1h-1zM21 28h3v1h-3zM25 28h4v1h-4z"/>
</svg>
