<svg xmlns="http://www.w3.org/2000/svg" viewBox="0 0 800 800">
  <defs>
    <linearGradient id="bg" x1="0" x2="1" y1="0" y2="1">
      <stop offset="0" stop-color="#e0f2fe"/>
      <stop offset=".52" stop-color="#fff7ed"/>
      <stop offset="1" stop-color="#fed7aa"/>
    </linearGradient>
  </defs>
  <rect width="800" height="800" fill="url(#bg)"/>
  <rect x="560" y="118" width="150" height="105" rx="18" fill="#fff" opacity=".8"/>
  <rect x="604" y="146" width="74" height="48" rx="8" fill="none" stroke="#ef4444" stroke-width="10"/>
  <path d="M641 194v86" stroke="#334155" stroke-width="12" stroke-linecap="round"/>
  <ellipse cx="400" cy="690" rx="330" ry="58" fill="#fdba74" opacity=".45"/>
  <path d="M88 620h624" stroke="#fb923c" stroke-width="12" opacity=".38"/>
  <circle cx="502" cy="226" r="46" fill="#fb923c"/>
  <path d="M458 226h88M502 182c-27 26-27 62 0 88M502 182c27 26 27 62 0 88" fill="none" stroke="#9a3412" stroke-width="6"/>
  <circle cx="324" cy="322" r="54" fill="#f8c9a0"/>
  <path d="M270 306c18-52 76-70 118-38 17 13 27 32 30 54-40-8-87-17-148-16Z" fill="#0f172a"/>
  <path d="M226 552c13-98 62-151 146-151 82 0 134 53 150 151" fill="#ef4444"/>
  <path d="M296 430 424 238M424 430l72-160M300 552l-66 126M454 552l80 126" fill="none" stroke="#991b1b" stroke-width="34" stroke-linecap="round"/>
  <circle cx="424" cy="238" r="17" fill="#f8c9a0"/>
  <circle cx="496" cy="270" r="17" fill="#f8c9a0"/>
  <path d="M190 682h132M482 682h132" stroke="#0f172a" stroke-width="18" stroke-linecap="round"/>
  <path d="M610 232c22 28 20 54-5 78" fill="none" stroke="#f97316" stroke-width="8" stroke-linecap="round" opacity=".55"/>
</svg>
