<svg width="900" height="900" viewBox="0 0 900 900" fill="none" xmlns="http://www.w3.org/2000/svg">
  <rect width="900" height="900" rx="96" fill="#ECF7FF"/>
  <rect y="590" width="900" height="310" fill="#FFF3E2"/>
  <circle cx="148" cy="142" r="58" fill="#FFE0C7"/>
  <circle cx="770" cy="176" r="78" fill="#DDF1FF"/>
  <rect x="92" y="96" width="716" height="404" rx="48" fill="#FFFFFF"/>
  <rect x="132" y="132" width="636" height="272" rx="30" fill="#E4F4FF"/>
  <rect x="160" y="164" width="580" height="208" rx="22" fill="#0E70C0"/>
  <path d="M198 321H702" stroke="#69B7EE" stroke-width="10" stroke-linecap="round" opacity="0.45"/>
  <path d="M198 259H702" stroke="#69B7EE" stroke-width="10" stroke-linecap="round" opacity="0.45"/>
  <path d="M198 197H702" stroke="#69B7EE" stroke-width="10" stroke-linecap="round" opacity="0.45"/>
  <text x="226" y="301" fill="white" font-family="Arial, sans-serif" font-size="128" font-weight="800">ABC</text>
  <text x="546" y="299" fill="#FFE4BD" font-family="Arial, sans-serif" font-size="54" font-weight="700">Hello</text>
  <rect x="170" y="430" width="240" height="32" rx="16" fill="#FFD8B8"/>
  <rect x="432" y="430" width="294" height="32" rx="16" fill="#BDE5FF"/>
  <path d="M222 657C267 657 304 620 304 575C304 530 267 493 222 493C177 493 140 530 140 575C140 620 177 657 222 657Z" fill="#FFD1AA"/>
  <path d="M138 830C150 730 181 680 224 680C267 680 301 733 316 830H138Z" fill="#F87E31"/>
  <path d="M148 562C158 510 230 489 280 526C255 526 238 533 217 545C192 559 170 562 148 562Z" fill="#202735"/>
  <path d="M585 636C637 636 679 594 679 542C679 490 637 448 585 448C533 448 491 490 491 542C491 594 533 636 585 636Z" fill="#FFD1AA"/>
  <path d="M472 830C486 713 526 660 588 660C649 660 691 715 707 830H472Z" fill="#0E70C0"/>
  <path d="M500 523C512 465 610 438 658 496C628 485 592 488 561 503C535 516 519 522 500 523Z" fill="#1F2937"/>
  <path d="M465 561L356 455" stroke="#F87E31" stroke-width="18" stroke-linecap="round"/>
  <circle cx="352" cy="451" r="18" fill="#F87E31"/>
  <path d="M334 752C398 710 480 709 546 751" stroke="#0E70C0" stroke-width="18" stroke-linecap="round"/>
  <path d="M262 755C329 717 417 717 488 756" stroke="#F87E31" stroke-width="18" stroke-linecap="round" opacity="0.7"/>
  <rect x="318" y="706" width="258" height="96" rx="22" fill="#FFFFFF"/>
  <path d="M447 706V802" stroke="#D8ECFF" stroke-width="8"/>
  <path d="M346 734H421" stroke="#F8B784" stroke-width="10" stroke-linecap="round"/>
  <path d="M474 734H548" stroke="#9DD4F8" stroke-width="10" stroke-linecap="round"/>
  <path d="M346 766H414" stroke="#F8B784" stroke-width="10" stroke-linecap="round"/>
  <path d="M474 766H534" stroke="#9DD4F8" stroke-width="10" stroke-linecap="round"/>
  <rect x="112" y="816" width="676" height="20" rx="10" fill="#FFE1C8"/>
</svg>
