<svg xmlns="http://www.w3.org/2000/svg" viewBox="0 0 800 800">
  <defs>
    <linearGradient id="sky" x1="0" x2="0" y1="0" y2="1">
      <stop offset="0" stop-color="#dbeafe"/>
      <stop offset="1" stop-color="#ecfeff"/>
    </linearGradient>
    <linearGradient id="grass" x1="0" x2="1" y1="0" y2="1">
      <stop offset="0" stop-color="#86efac"/>
      <stop offset="1" stop-color="#22c55e"/>
    </linearGradient>
  </defs>
  <rect width="800" height="800" fill="url(#sky)"/>
  <rect y="500" width="800" height="300" fill="url(#grass)"/>
  <path d="M70 620h660M400 500v300" stroke="#fff" stroke-width="10" opacity=".72"/>
  <circle cx="400" cy="642" r="88" fill="none" stroke="#fff" stroke-width="8" opacity=".58"/>
  <circle cx="334" cy="324" r="54" fill="#f8c9a0"/>
  <path d="M282 307c20-55 86-71 126-26 13 15 20 32 20 52-41-11-90-24-146-26Z" fill="#0f172a"/>
  <path d="M228 550c13-96 62-148 145-148 82 0 133 52 148 148" fill="#14b8a6"/>
  <path d="M300 432 210 522M440 438l80 86M308 550l-78 132M454 550l98 132" fill="none" stroke="#0f766e" stroke-width="34" stroke-linecap="round"/>
  <circle cx="215" cy="522" r="17" fill="#f8c9a0"/>
  <circle cx="518" cy="522" r="17" fill="#f8c9a0"/>
  <circle cx="590" cy="630" r="58" fill="#f8fafc"/>
  <path d="m590 577 34 25-13 41h-42l-13-41 34-25Z" fill="#0f172a"/>
  <path d="M590 577v106M540 612l100 36M640 612l-100 36" stroke="#0f172a" stroke-width="7" opacity=".85"/>
  <path d="M198 686h118M506 686h132" stroke="#0f172a" stroke-width="18" stroke-linecap="round"/>
  <path d="M112 536c35-26 72-26 110 0M632 536c31-24 66-24 104 0" fill="none" stroke="#16a34a" stroke-width="10" stroke-linecap="round" opacity=".55"/>
</svg>
